HIERARCHY
ROOT Pelvis
{
	OFFSET 0.000000 0.941512 0.000000
	CHANNELS 6 Xposition Yposition Zposition Zrotation Yrotation Xrotation 
	JOINT Pelvis_L_Hip
	{
		OFFSET 0.000000 0.000000 0.000000
		CHANNELS 3 Zrotation Yrotation Xrotation
		JOINT L_Hip
		{
			OFFSET 0.062321 -0.080322 -0.016990
			CHANNELS 3 Zrotation Yrotation Xrotation
			JOINT L_Knee
			{
				OFFSET 0.093051 -0.381305 -0.029784
				CHANNELS 3 Zrotation Yrotation Xrotation
				JOINT L_Ankle
				{
					OFFSET -0.010371 -0.431000 -0.033614
					CHANNELS 3 Zrotation Yrotation Xrotation
					End Site #name: L_Foot
					{
						OFFSET 0.069299 -0.038670 0.119418
					}
				}
			}
		}
	}
	JOINT Pelvis_R_Hip
	{
		OFFSET 0.000000 0.000000 0.000000
		CHANNELS 3 Zrotation Yrotation Xrotation
		JOINT R_Hip
		{
			OFFSET -0.055334 -0.094904 -0.002373
			CHANNELS 3 Zrotation Yrotation Xrotation
			JOINT R_Knee
			{
				OFFSET -0.064207 -0.384370 -0.019592
				CHANNELS 3 Zrotation Yrotation Xrotation
				JOINT R_Ankle
				{
					OFFSET 0.025418 -0.419734 -0.065953
					CHANNELS 3 Zrotation Yrotation Xrotation
					End Site #name: R_Foot
					{
						OFFSET -0.057233 -0.039888 0.132134
					}
				}
			}
		}
	}
	JOINT Pelvis_Spine1
	{
		OFFSET 0.000000 0.000000 0.000000
		CHANNELS 3 Zrotation Yrotation Xrotation
		JOINT Spine1
		{
			OFFSET -0.005562 0.124093 -0.043360
			CHANNELS 3 Zrotation Yrotation Xrotation
			JOINT Spine2
			{
				OFFSET 0.012244 0.139499 0.029894
				CHANNELS 3 Zrotation Yrotation Xrotation
				JOINT Spine3
				{
					OFFSET -0.002556 0.056561 0.009225
					CHANNELS 3 Zrotation Yrotation Xrotation
					JOINT Spine3_Neck
					{
						OFFSET 0.000000 0.000000 0.000000
						CHANNELS 3 Zrotation Yrotation Xrotation
						JOINT Neck
						{
							OFFSET -0.005205 0.217920 -0.024551
							CHANNELS 3 Zrotation Yrotation Xrotation
							End Site #name: Head
							{
								OFFSET 0.002365 0.091850 0.046637
							}
						}
					}
					JOINT Spine3_L_Collar
					{
						OFFSET 0.000000 0.000000 0.000000
						CHANNELS 3 Zrotation Yrotation Xrotation
						JOINT L_Collar
						{
							OFFSET 0.072225 0.116603 -0.009480
							CHANNELS 3 Zrotation Yrotation Xrotation
							JOINT L_Shoulder
							{
								OFFSET 0.115937 -0.058643 -0.021018
								CHANNELS 3 Zrotation Yrotation Xrotation
								JOINT L_Elbow
								{
									OFFSET 0.021994 -0.254722 -0.024492
									CHANNELS 3 Zrotation Yrotation Xrotation
									End Site #name: L_Wrist
									{
										OFFSET 0.048810 -0.240214 0.103329
									}
								}
							}
						}
					}
					JOINT Spine3_R_Collar
					{
						OFFSET 0.000000 0.000000 0.000000
						CHANNELS 3 Zrotation Yrotation Xrotation
						JOINT R_Collar
						{
							OFFSET -0.073372 0.120704 -0.024611
							CHANNELS 3 Zrotation Yrotation Xrotation
							JOINT R_Shoulder
							{
								OFFSET -0.108089 -0.054969 -0.020504
								CHANNELS 3 Zrotation Yrotation Xrotation
								JOINT R_Elbow
								{
									OFFSET -0.033684 -0.260739 0.009889
									CHANNELS 3 Zrotation Yrotation Xrotation
									End Site #name: R_Wrist
									{
										OFFSET -0.067980 -0.232763 0.118463
									}
								}
							}
						}
					}
				}
			}
		}
	}
}
MOTION
Frames: 13
Frame Time: 0.041667
-1.028362 0.974047 -0.060396 -6.165221 -14.457572 9.265009 0.000000 0.000000 0.000000 -3.090174 -5.449105 -23.085561 21.817114 -7.083267 29.972053 -17.908607 -54.738967 3.055179 0.000000 0.000000 0.000000 -11.242354 2.744908 -20.714896 -0.627752 1.167271 12.447024 4.770440 -2.291446 10.940688 0.000000 0.000000 0.000000 7.378359 -2.428881 5.685988 -2.400493 0.132038 -4.320953 2.581947 -1.078169 -0.526556 0.000000 0.000000 0.000000 -8.635410 4.751323 2.227153 0.000000 0.000000 0.000000 19.821906 -6.628575 -2.572479 -17.226940 1.317680 -2.094317 1.887426 -3.589293 -21.969431 0.000000 0.000000 0.000000 -26.407881 12.137410 -2.385674 21.258145 0.272586 1.810284 0.421382 -0.302435 1.754163 
-1.079417 0.965383 -0.061804 -5.962580 -11.362831 8.712185 0.000000 0.000000 0.000000 0.447408 -4.826063 -21.738892 21.284513 -7.010172 28.800342 -13.427784 -56.076739 -2.462456 0.000000 0.000000 0.000000 -10.499546 2.399954 -17.930375 -1.845693 0.772372 5.736174 7.905610 2.609796 13.480594 0.000000 0.000000 0.000000 6.091728 -2.013744 4.841166 -1.633412 0.047453 -4.009998 2.589747 -1.061251 -0.595394 0.000000 0.000000 0.000000 -7.532199 4.073865 1.944679 0.000000 0.000000 0.000000 19.753445 -8.311098 -3.538450 -16.306621 0.724853 -4.207410 1.035064 -5.668761 -28.085623 0.000000 0.000000 0.000000 -27.440738 10.185862 -0.860672 18.971062 -1.828144 8.465780 -0.633267 -0.464464 0.502050 
-1.131467 0.948753 -0.067891 -5.884826 -9.279113 7.956839 0.000000 0.000000 0.000000 4.031717 -4.361479 -21.210465 21.309240 -7.312527 29.332744 -6.366237 -56.155369 -10.722062 0.000000 0.000000 0.000000 -9.389609 2.433357 -18.170501 1.321011 0.283090 8.142571 7.323514 2.452867 12.807247 0.000000 0.000000 0.000000 5.376853 -1.898702 5.355371 -1.759827 0.094720 -3.326550 2.770028 -0.238105 -0.536742 0.000000 0.000000 0.000000 -7.457266 3.795809 -0.479297 0.000000 0.000000 0.000000 17.588831 -8.515546 -3.500307 -13.882726 0.169959 -6.069556 -0.050665 -8.282809 -34.462429 0.000000 0.000000 0.000000 -27.459327 9.610284 -0.795025 16.196714 -3.715398 15.670644 -1.279574 -0.221133 -1.534584 
-1.174331 0.943099 -0.075078 -5.784831 -7.723836 7.249636 0.000000 0.000000 0.000000 6.264741 -4.200630 -21.561924 21.005899 -7.742688 31.304693 -5.368210 -52.867687 -11.025935 0.000000 0.000000 0.000000 -8.119633 2.713972 -20.161606 4.400648 -0.185849 14.104365 5.191502 0.585385 10.304687 0.000000 0.000000 0.000000 5.559961 -2.109595 6.539944 -2.094430 0.206736 -2.118009 2.865932 0.581013 -0.798010 0.000000 0.000000 0.000000 -8.283555 3.977004 -3.271130 0.000000 0.000000 0.000000 13.966833 -8.161407 -3.271859 -12.316565 -0.048573 -6.764692 -0.999030 -9.772889 -36.612414 0.000000 0.000000 0.000000 -26.020393 9.179390 -1.035448 13.209212 -4.473662 20.025131 -2.693517 -1.007164 -1.351551 
-1.204635 0.955078 -0.077718 -4.304676 -5.979703 6.887403 0.000000 0.000000 0.000000 5.975366 -4.451835 -22.452074 17.291516 -6.879305 33.080796 -7.931906 -44.608330 -5.601407 0.000000 0.000000 0.000000 -7.185695 2.644379 -19.327496 4.022983 -0.138011 13.825392 4.360013 -0.991715 10.015923 0.000000 0.000000 0.000000 4.773486 -1.906571 6.578103 -2.407918 0.291326 -1.485256 2.634797 0.748033 -1.159789 0.000000 0.000000 0.000000 -8.493645 4.125584 -2.625947 0.000000 0.000000 0.000000 11.955192 -8.264864 -3.370921 -13.734264 0.332643 -5.118548 -1.928273 -9.503406 -33.102127 0.000000 0.000000 0.000000 -25.568873 8.033635 -0.392048 13.973157 -4.832814 21.009756 -4.935977 -2.423978 -0.247263 
-1.227911 0.971270 -0.076628 -2.041092 -4.932814 7.017318 0.000000 0.000000 0.000000 4.881978 -4.639008 -22.439533 9.602707 -3.927055 31.800353 -6.759516 -31.797901 -3.177959 0.000000 0.000000 0.000000 -6.439058 2.371369 -16.822152 1.356970 0.306932 9.401831 4.700845 -1.825533 11.505609 0.000000 0.000000 0.000000 3.701316 -1.449521 5.207452 -3.407164 0.440002 -1.501592 1.826092 0.841920 -1.187241 0.000000 0.000000 0.000000 -7.780424 3.919754 -0.578341 0.000000 0.000000 0.000000 11.711232 -7.438633 -2.785300 -14.426828 0.746078 -3.279790 -3.569994 -9.039008 -27.372548 0.000000 0.000000 0.000000 -26.474611 6.599773 0.829512 17.434507 -5.180830 20.342871 -5.716152 -2.838399 -0.132528 
-1.246101 0.980885 -0.074874 -0.677993 -4.676901 7.224319 0.000000 0.000000 0.000000 4.035558 -4.525791 -21.189356 1.849282 -0.961819 27.126324 -3.674963 -16.200671 -1.825701 0.000000 0.000000 0.000000 -5.801766 2.154791 -14.779445 -0.256012 0.409485 5.506881 5.162241 -2.097857 12.722605 0.000000 0.000000 0.000000 4.155168 -1.398451 3.720906 -4.727676 0.646718 -1.410524 0.800715 1.275631 -1.296088 0.000000 0.000000 0.000000 -7.201731 3.742563 1.361341 0.000000 0.000000 0.000000 11.613582 -6.010989 -1.821074 -13.789452 0.918446 -2.153258 -4.193945 -7.818165 -21.937526 0.000000 0.000000 0.000000 -27.726217 6.402889 1.107028 20.211775 -5.450483 19.859645 -4.527024 -2.171918 -0.439622 
-1.260185 0.982649 -0.073382 -0.543677 -4.422739 7.291815 0.000000 0.000000 0.000000 3.323834 -4.249783 -19.343458 -3.144247 0.536621 20.993860 -0.979804 -1.661066 0.801826 0.000000 0.000000 0.000000 -4.923840 1.960054 -12.910999 -0.442630 0.237339 2.513703 5.265441 -2.275328 13.116750 0.000000 0.000000 0.000000 5.493535 -1.593700 2.534199 -5.386917 0.786759 -0.978048 0.359693 1.827478 -1.319398 0.000000 0.000000 0.000000 -6.976114 3.692960 2.682673 0.000000 0.000000 0.000000 11.343513 -5.202426 -1.284535 -13.985555 0.951490 -2.007564 -2.713700 -5.169692 -16.068340 0.000000 0.000000 0.000000 -28.237485 7.071011 0.471201 20.940789 -5.546245 19.817278 -2.950148 -1.203511 -1.108620 
-1.270436 0.980115 -0.071509 -1.248851 -3.922576 7.263593 0.000000 0.000000 0.000000 2.028960 -3.901719 -17.088209 -3.849474 0.561628 14.808593 0.705883 8.211072 4.072032 0.000000 0.000000 0.000000 -3.662036 1.793062 -11.323992 -0.139472 0.061117 0.623356 5.174236 -2.392354 13.091543 0.000000 0.000000 0.000000 6.787636 -1.772963 1.519088 -5.037543 0.765616 -0.603100 0.609186 2.161710 -0.927434 0.000000 0.000000 0.000000 -6.976197 3.704532 2.967723 0.000000 0.000000 0.000000 10.945775 -5.366839 -1.400357 -15.132219 0.932479 -2.502600 -0.305351 -2.045717 -8.942690 0.000000 0.000000 0.000000 -27.697294 7.375163 -0.006987 20.172081 -5.245181 19.212373 -2.388768 -0.735662 -1.775303 
-1.277865 0.976274 -0.068278 -2.564941 -3.209560 7.206240 0.000000 0.000000 0.000000 0.547788 -3.503893 -14.854278 -0.625640 -0.101867 9.983944 1.660500 12.874594 5.867814 0.000000 0.000000 0.000000 -1.739739 1.653365 -10.011049 -0.140951 -0.005272 -0.427474 5.019027 -2.518511 12.969648 0.000000 0.000000 0.000000 7.993601 -1.902325 0.478499 -3.910926 0.599156 -0.449673 1.093216 2.080467 -0.394741 0.000000 0.000000 0.000000 -6.956703 3.690448 2.883378 0.000000 0.000000 0.000000 10.506877 -6.100000 -1.899240 -16.316566 1.059224 -2.376414 1.837608 0.302859 -2.615899 0.000000 0.000000 0.000000 -26.733437 6.876650 0.204605 19.160966 -4.559276 17.406364 -2.858782 -1.013600 -1.653526 
-1.286552 0.974380 -0.062550 -3.856398 -2.881736 5.006448 0.000000 0.000000 0.000000 0.618198 -2.444341 -10.225632 2.154020 -0.435386 6.259963 0.974291 12.261840 6.727090 0.000000 0.000000 0.000000 0.804796 1.070152 -6.373920 -1.111773 0.065662 -1.486017 5.036249 -1.612953 12.241039 0.000000 0.000000 0.000000 8.667090 -2.577839 3.776085 -3.141917 0.199560 -4.362108 1.168786 1.345376 1.539598 0.000000 0.000000 0.000000 -6.609513 3.450232 1.303779 0.000000 0.000000 0.000000 10.864998 -4.884522 -1.083296 -16.147809 1.156137 -2.131280 1.634812 0.965446 1.433305 0.000000 0.000000 0.000000 -23.286752 5.338716 0.945191 17.035781 -3.375544 14.054746 -4.000078 -1.961945 -0.224096 
-1.292726 0.973599 -0.057742 -3.910370 -2.832201 5.002570 0.000000 0.000000 0.000000 1.286955 -2.131627 -8.866256 2.235674 -0.380868 4.658563 0.242366 10.953374 7.096635 0.000000 0.000000 0.000000 1.292115 0.827298 -5.046083 -1.265563 -0.030945 -3.136198 5.334786 -1.332600 12.635725 0.000000 0.000000 0.000000 7.880973 -2.152326 2.386149 -2.487366 0.155855 -3.774469 1.586927 0.727040 1.635091 0.000000 0.000000 0.000000 -5.651414 2.943535 1.112192 0.000000 0.000000 0.000000 11.103322 -4.795169 -1.030955 -15.288389 1.447644 -0.563008 0.674499 0.669165 1.956175 0.000000 0.000000 0.000000 -21.317697 3.762921 1.905139 16.583392 -2.608396 11.495726 -4.484659 -2.212890 -0.189808 
-1.296786 0.973278 -0.054722 -3.805462 -3.016849 5.145089 0.000000 0.000000 0.000000 1.721943 -1.936909 -7.984423 1.850179 -0.286490 3.422470 -0.055334 10.436700 7.276185 0.000000 0.000000 0.000000 1.289274 0.703920 -4.368507 -1.088709 -0.128391 -4.213327 5.541410 -1.002910 12.756839 0.000000 0.000000 0.000000 7.466626 -1.894628 1.379637 -2.356392 0.157710 -3.480036 1.719695 0.475510 1.611703 0.000000 0.000000 0.000000 -4.745845 2.464798 0.957935 0.000000 0.000000 0.000000 11.566228 -4.418991 -0.754377 -14.197804 1.653352 0.881376 -0.593501 0.027838 1.365522 0.000000 0.000000 0.000000 -20.537239 3.195910 2.236441 17.198721 -2.240392 10.084151 -4.119569 -1.995039 -0.329092 
